<svg xmlns="http://www.w3.org/2000/svg" width="239.91mm" height="55.2mm" viewBox="0 0 680.05 156.47"><path d="M177.8,0H55.51A15.56,15.56,0,0,0,40,15.51V135H177.8a15.55,15.55,0,0,0,15.5-15.51v-104A15.55,15.55,0,0,0,177.8,0Z" fill="#0073b3"/><path d="M137.8,0H15.51A15.56,15.56,0,0,0,0,15.51V135H137.8a15.55,15.55,0,0,0,15.5-15.51v-104A15.55,15.55,0,0,0,137.8,0Z" fill="#393b41"/><path d="M37.68,27a10.66,10.66,0,0,1-3.16,7.85A10.39,10.39,0,0,1,26.85,38a10.44,10.44,0,0,1-7.64-3.18A10.61,10.61,0,0,1,16,27a10.47,10.47,0,0,1,3.19-7.71,10.44,10.44,0,0,1,7.64-3.18,10.39,10.39,0,0,1,7.67,3.18A10.52,10.52,0,0,1,37.68,27Zm-.58,91.24H16.53V43.61H37.1Z" fill="#fff"/><path d="M77,27a10.7,10.7,0,0,1-3.16,7.85,10.8,10.8,0,0,1-15.31,0A10.62,10.62,0,0,1,55.34,27a10.48,10.48,0,0,1,3.2-7.71,10.8,10.8,0,0,1,15.31,0A10.56,10.56,0,0,1,77,27Zm-.58,91.24H55.86V43.61H76.43Z" fill="#fff"/><path d="M137,56.51H117.37V94.77c0,3.88.64,6.74,1.93,8.56s3.78,2.72,7.48,2.72a30.06,30.06,0,0,0,5.09-.42,35.33,35.33,0,0,0,4.52-1.07v11.67a32.79,32.79,0,0,1-8.1,2,70.89,70.89,0,0,1-9.44.65c-6.8,0-12.16-2.2-16.12-6.58S96.8,101.62,96.8,93.4v-37H88V45.75l9.61-.52,6.89-24.84h12.9V45.1H137Z" fill="#fff"/><path d="M213.32,42.73V20.33H218v22.4Z" fill="#393b41"/><path d="M229.58,43.07a12.64,12.64,0,0,1-7.14-2.1l1.8-3.37a9.24,9.24,0,0,0,5.13,1.73c1.63,0,3.47-.61,3.47-2.31,0-3-5.44-3.47-8.16-6.56a5.83,5.83,0,0,1-1.43-4c0-3.4,2.69-6.39,7.62-6.39a11.44,11.44,0,0,1,5.64,1.36l-.07,4a11,11,0,0,0-5.33-1.63c-1.67,0-3,.75-3,2,0,3.88,9.62,3.54,9.62,10.57C237.77,40.52,234.17,43.07,229.58,43.07Z" fill="#393b41"/><path d="M257.73,24.14h-6V42.73H247V24.14h-6.56V20.33h18.32Z" fill="#393b41"/><path d="M262.22,42.73V20.33h4.65v22.4Z" fill="#393b41"/><path d="M288,24.14h-6V42.73h-4.69V24.14h-6.56V20.33H289Z" fill="#393b41"/><path d="M309.51,40.49c-1.67,1.67-4.08,2.58-7.48,2.58s-5.75-.74-7.34-2.31a8.54,8.54,0,0,1-2.21-6.29V20.33h4.62V34.1a5.35,5.35,0,0,0,1.26,3.67,4.9,4.9,0,0,0,3.74,1.39A5,5,0,0,0,306,37.77a4.87,4.87,0,0,0,1.12-3.47v-14h4.66V34A8.89,8.89,0,0,1,309.51,40.49Z" fill="#393b41"/><path d="M332.93,24.14h-6V42.73h-4.7V24.14h-6.56V20.33H334Z" fill="#393b41"/><path d="M354.79,39.74a12.69,12.69,0,0,1-16.42.61,11.24,11.24,0,0,1-3.57-8.56A11.8,11.8,0,0,1,338,23.42a11.44,11.44,0,0,1,8.33-3.33,11.63,11.63,0,0,1,8.74,3.47,11.56,11.56,0,0,1,2.82,8A11.52,11.52,0,0,1,354.79,39.74ZM346.36,23.9c-3.87,0-6.7,2.82-6.7,7.72s2.83,7.71,6.7,7.71S353,36.51,353,31.62,350.24,23.9,346.36,23.9Z" fill="#393b41"/><path d="M371.79,42.73V20.33h4.66v22.4Z" fill="#393b41"/><path d="M397.22,24.14h-6V42.73h-4.7V24.14H380V20.33h18.33Z" fill="#393b41"/><path d="M413.1,42.73l-2.17-5.47h-7.62l-2.07,5.47h-4.59l8.77-22.5H409l9.15,22.5ZM408,29.17a24,24,0,0,1-.82-2.75h0a17.62,17.62,0,0,1-.82,2.68l-1.66,4.42h4.86Z" fill="#393b41"/><path d="M421.37,42.73V20.33H426V38.89h7.89v3.84Z" fill="#393b41"/><path d="M437.21,42.73V20.33h4.66v22.4Z" fill="#393b41"/><path d="M461.58,42.73l-2.17-5.47h-7.62l-2.07,5.47h-4.59l8.77-22.5h3.54l9.14,22.5Zm-5.13-13.56a23.63,23.63,0,0,1-.81-2.75h0a17.45,17.45,0,0,1-.81,2.68l-1.67,4.42H458Z" fill="#393b41"/><path d="M486.34,42.73l-9.73-12.44c-.85-1.09-1.46-2-2.14-3h-.07c.07.75.07,2.11.07,3.13V42.73h-4.62V20.33h4.69l9.38,12c.89,1.12,1.5,2,2.11,2.92h.07c-.07-1-.07-2.52-.07-3.47V20.33h4.62v22.4Z" fill="#393b41"/><path d="M514.86,39.74a12.69,12.69,0,0,1-16.42.61,11.24,11.24,0,0,1-3.57-8.56,11.8,11.8,0,0,1,3.23-8.37,11.44,11.44,0,0,1,8.33-3.33,11.63,11.63,0,0,1,8.74,3.47,11.56,11.56,0,0,1,2.82,8A11.52,11.52,0,0,1,514.86,39.74ZM506.43,23.9c-3.88,0-6.7,2.82-6.7,7.72s2.82,7.71,6.7,7.71,6.63-2.82,6.63-7.71S510.31,23.9,506.43,23.9Z" fill="#393b41"/><path d="M220.36,80.53h-7V58.13h7.45c8,0,12.48,4.32,12.48,11C233.25,76.05,228.11,80.53,220.36,80.53Zm.1-18.53H218V76.69h2.55c5.54,0,7.72-3.5,7.72-7.41C228.25,64.86,225.6,62,220.46,62Z" fill="#393b41"/><path d="M237.47,80.53V58.13h4.65v22.4Z" fill="#393b41"/><path d="M270,61.94h-6V80.53h-4.69V61.94h-6.56V58.13h18.32Z" fill="#393b41"/><path d="M274.18,80.53V58.13h13l-1.22,3.81h-7.11v5.23H286V71h-7.14v5.72h8.3v3.8Z" fill="#393b41"/><path d="M302,80.87c-7.31,0-11.45-5-11.45-11.32S295.32,57.89,303,57.89a13.3,13.3,0,0,1,5.85,1.19l-.07,4.15a10.78,10.78,0,0,0-5.61-1.56c-5.27,0-7.58,3.67-7.58,7.54,0,4.29,2.76,7.65,7.18,7.65a11.24,11.24,0,0,0,5.57-1.53l1.26,3.26A13.92,13.92,0,0,1,302,80.87Z" fill="#393b41"/><path d="M329.93,80.53l-9.72-12.44c-.85-1.09-1.46-2-2.14-3H318c.07.75.07,2.11.07,3.13V80.53h-4.62V58.13h4.69l9.38,12c.89,1.12,1.5,2,2.11,2.92h.07c-.07-1-.07-2.52-.07-3.47V58.13h4.62v22.4Z" fill="#393b41"/><path d="M358.46,77.54a12.69,12.69,0,0,1-16.42.61,11.24,11.24,0,0,1-3.57-8.56,11.8,11.8,0,0,1,3.23-8.37A11.44,11.44,0,0,1,350,57.89a11.69,11.69,0,0,1,8.43,19.65ZM350,61.7c-3.88,0-6.7,2.82-6.7,7.72s2.82,7.71,6.7,7.71,6.63-2.82,6.63-7.71S353.9,61.7,350,61.7Z" fill="#393b41"/><path d="M365.81,80.53V58.13h4.62V76.69h7.89v3.84Z" fill="#393b41"/><path d="M400.69,77.54a12.69,12.69,0,0,1-16.42.61,11.24,11.24,0,0,1-3.57-8.56,11.76,11.76,0,0,1,3.23-8.37,11.42,11.42,0,0,1,8.33-3.33,11.69,11.69,0,0,1,8.43,19.65ZM392.26,61.7c-3.88,0-6.7,2.82-6.7,7.72s2.82,7.71,6.7,7.71,6.63-2.82,6.63-7.71S396.13,61.7,392.26,61.7Z" fill="#393b41"/><path d="M418.44,80.87c-7.11,0-11.36-5-11.36-11.32,0-6.53,5.07-11.66,12.72-11.66A19.66,19.66,0,0,1,426.53,59l-.07,4.22a13.08,13.08,0,0,0-6.09-1.56c-5.95,0-8.22,3.6-8.22,7.54,0,4.32,2.82,7.92,7.48,7.92a9,9,0,0,0,3.29-.54V69.08h4.66v9.58A19.25,19.25,0,0,1,418.44,80.87Z" fill="#393b41"/><path d="M432.38,80.53V58.13H437v22.4Z" fill="#393b41"/><path d="M456.75,80.53l-2.17-5.47H447l-2.07,5.47H440.3L449.07,58h3.54l9.14,22.5ZM451.62,67a25.6,25.6,0,0,1-.82-2.76h0A17.37,17.37,0,0,1,450,66.9l-1.66,4.42h4.86Z" fill="#393b41"/><path d="M227.88,118.33l-2.18-5.47h-7.62L216,118.33h-4.59l8.77-22.5h3.54l9.14,22.5Zm-5.14-13.56a23.14,23.14,0,0,1-.81-2.76h0a17.21,17.21,0,0,1-.81,2.69l-1.67,4.42h4.86Z" fill="#0073b3"/><path d="M248.11,118.33c-3.4-5.81-4.76-8.33-5.58-8.63H240.8v8.63h-4.66V95.93h6.53c6,0,8.16,3,8.16,6.42a6.43,6.43,0,0,1-4.08,5.82v0c1.12.65,3.29,4.42,6.66,10.13ZM242.77,99.8h-2v6.5h2a3.36,3.36,0,0,0,3.43-3.44C246.2,101.13,245,99.8,242.77,99.8Z" fill="#0073b3"/><path d="M270.81,99.74h-6v18.59H260.1V99.74h-6.56V95.93h18.32Z" fill="#0073b3"/><path d="M275,118.33V95.93h4.66v22.4Z" fill="#0073b3"/><path d="M296.62,99.74h-7.18v5.33h7.07l0,3.81h-7.11v9.45h-4.66V95.93h13Z" fill="#0073b3"/><path d="M301.78,118.33V95.93h4.66v22.4Z" fill="#0073b3"/><path d="M322.11,118.67c-7.31,0-11.45-5-11.45-11.32s4.83-11.66,12.48-11.66A13.29,13.29,0,0,1,329,96.88l-.07,4.15a10.8,10.8,0,0,0-5.61-1.57c-5.26,0-7.58,3.68-7.58,7.55,0,4.29,2.76,7.65,7.18,7.65a11.24,11.24,0,0,0,5.57-1.53l1.26,3.27A14,14,0,0,1,322.11,118.67Z" fill="#0073b3"/><path d="M333.61,118.33V95.93h4.65v22.4Z" fill="#0073b3"/><path d="M358,118.33l-2.17-5.47h-7.62l-2.07,5.47h-4.59l8.77-22.5h3.54l9.14,22.5Zm-5.13-13.56A25.6,25.6,0,0,1,352,102h0a17.37,17.37,0,0,1-.82,2.69l-1.66,4.42h4.86Z" fill="#0073b3"/><path d="M366.25,118.33V95.93h4.62v18.56h7.89v3.84Z" fill="#0073b3"/><path d="M403.77,118.33l-2.17-5.47H394l-2.07,5.47h-4.59l8.77-22.5h3.54l9.14,22.5Zm-5.13-13.56a25.6,25.6,0,0,1-.82-2.76h0a17.37,17.37,0,0,1-.82,2.69l-1.66,4.42h4.86Z" fill="#0073b3"/><path d="M428.53,118.33l-9.73-12.44c-.85-1.09-1.46-2-2.14-3h-.07c.07.75.07,2.11.07,3.13v12.27H412V95.93h4.69l9.38,12c.89,1.12,1.5,2,2.11,2.92h.07c-.07-1-.07-2.52-.07-3.47V95.93h4.62v22.4Z" fill="#0073b3"/><path d="M445.05,118.33h-7V95.93h7.45c8,0,12.47,4.32,12.47,11C457.93,113.84,452.8,118.33,445.05,118.33Zm.1-18.53h-2.48v14.69h2.55c5.54,0,7.72-3.5,7.72-7.41C452.94,102.66,450.29,99.8,445.15,99.8Z" fill="#0073b3"/><path d="M489.52,118.33V106c0-.82,0-1.63.07-2.42h-.07a18.81,18.81,0,0,1-1.39,2.35L484,112.25h-2.14l-4.63-6.53a14.73,14.73,0,0,1-1.42-2.18h-.07c0,.85,0,1.64,0,2.28v12.51h-4.62V95.93h4.28l5.88,8.4a26.54,26.54,0,0,1,1.64,2.51h0a20.88,20.88,0,0,1,1.53-2.65l5.37-8.26h4.28v22.4Z" fill="#0073b3"/><path d="M499.31,118.33V95.93h13l-1.22,3.81H504V105h7.14v3.84H504v5.72h8.3v3.8Z" fill="#0073b3"/><path d="M527.09,118.67c-7.31,0-11.46-5-11.46-11.32s4.83-11.66,12.48-11.66A13.3,13.3,0,0,1,534,96.88l-.07,4.15a10.8,10.8,0,0,0-5.61-1.57c-5.27,0-7.58,3.68-7.58,7.55,0,4.29,2.75,7.65,7.17,7.65a11.25,11.25,0,0,0,5.58-1.53l1.26,3.27A14,14,0,0,1,527.09,118.67Z" fill="#0073b3"/><path d="M553.61,118.33V109H543.24v9.38h-4.66V95.93h4.66v9h10.37v-9h4.66v22.4Z" fill="#0073b3"/><path d="M578,118.33l-2.18-5.47H568.2l-2.08,5.47h-4.59l8.77-22.5h3.54l9.15,22.5Zm-5.14-13.56A23.14,23.14,0,0,1,572,102h0a17.21,17.21,0,0,1-.81,2.69l-1.67,4.42h4.86Z" fill="#0073b3"/><path d="M602.74,118.33,593,105.89c-.85-1.09-1.47-2-2.15-3h-.06c.06.75.06,2.11.06,3.13v12.27h-4.62V95.93h4.69l9.39,12c.88,1.12,1.49,2,2.1,2.92h.07c-.07-1-.07-2.52-.07-3.47V95.93h4.63v22.4Z" fill="#0073b3"/><path d="M612.23,118.33V95.93h4.65v22.4Z" fill="#0073b3"/><path d="M632.56,118.67c-7.31,0-11.46-5-11.46-11.32s4.83-11.66,12.48-11.66a13.29,13.29,0,0,1,5.84,1.19l-.06,4.15a10.82,10.82,0,0,0-5.61-1.57c-5.27,0-7.58,3.68-7.58,7.55,0,4.29,2.75,7.65,7.17,7.65a11.24,11.24,0,0,0,5.57-1.53l1.26,3.27A14,14,0,0,1,632.56,118.67Z" fill="#0073b3"/><path d="M659.27,118.33l-2.17-5.47h-7.62l-2.07,5.47h-4.59l8.77-22.5h3.54l9.14,22.5Zm-5.13-13.56a25.6,25.6,0,0,1-.82-2.76h0a17.37,17.37,0,0,1-.82,2.69l-1.66,4.42h4.86Z" fill="#0073b3"/><path d="M667.54,118.33V95.93h4.62v18.56h7.89v3.84Z" fill="#0073b3"/><path d="M213.32,156.13v-22.4H218v22.4Z" fill="#0073b3"/><path d="M239.64,156.13l-9.72-12.44c-.85-1.09-1.47-2-2.15-3h-.06c.06.75.06,2.11.06,3.13v12.27h-4.62v-22.4h4.69l9.38,12c.89,1.12,1.5,2,2.11,2.92h.07c-.07-1.05-.07-2.52-.07-3.47V133.73H244v22.4Z" fill="#0073b3"/><path d="M264.73,137.54h-6v18.59H254V137.54h-6.56v-3.81h18.32Z" fill="#0073b3"/><path d="M268.88,156.13v-22.4h13l-1.23,3.81h-7.1v5.23h7.14v3.84h-7.14v5.72h8.29v3.8Z" fill="#0073b3"/><path d="M286.15,156.13v-22.4h4.63v18.56h7.88v3.84Z" fill="#0073b3"/><path d="M302,156.13v-22.4h4.62v18.56h7.89v3.84Z" fill="#0073b3"/><path d="M317.84,156.13v-22.4h4.66v22.4Z" fill="#0073b3"/><path d="M338.07,156.47c-7.11,0-11.36-5-11.36-11.32,0-6.53,5.07-11.66,12.72-11.66a19.66,19.66,0,0,1,6.73,1.12l-.07,4.22a13,13,0,0,0-6.08-1.57c-5.95,0-8.23,3.61-8.23,7.55,0,4.32,2.82,7.92,7.48,7.92a9,9,0,0,0,3.29-.54v-7.51h4.66v9.58A19.25,19.25,0,0,1,338.07,156.47Z" fill="#0073b3"/><path d="M352,156.13v-22.4h13l-1.23,3.81h-7.1v5.23h7.13v3.84h-7.13v5.72H365v3.8Z" fill="#0073b3"/><path d="M385.77,156.13l-9.72-12.44c-.85-1.09-1.47-2-2.15-3h-.06c.06.75.06,2.11.06,3.13v12.27h-4.62v-22.4H374l9.38,12c.89,1.12,1.5,2,2.11,2.92h.07c-.07-1.05-.07-2.52-.07-3.47V133.73h4.63v22.4Z" fill="#0073b3"/><path d="M405.76,156.47c-7.31,0-11.46-5-11.46-11.32s4.83-11.66,12.48-11.66a13.3,13.3,0,0,1,5.85,1.19l-.07,4.15a10.8,10.8,0,0,0-5.61-1.57c-5.27,0-7.58,3.68-7.58,7.55,0,4.29,2.75,7.65,7.17,7.65a11.25,11.25,0,0,0,5.58-1.53l1.26,3.26A13.92,13.92,0,0,1,405.76,156.47Z" fill="#0073b3"/><path d="M417.25,156.13v-22.4h13L429,137.54h-7.11v5.23h7.14v3.84h-7.14v5.72h8.3v3.8Z" fill="#0073b3"/><path d="M182.92,104.22l-4.95,2v7l4.95,1.83v3.57l-19.86-7.68V108.3l19.86-8Zm-12.45,4.68a20.28,20.28,0,0,1-2.46.75v0a15.74,15.74,0,0,1,2.4.72l4.59,1.71v-4.8Z" fill="#fff"/><path d="M182.92,81.21H171.16c-.72,0-1.35,0-2.13-.06v0a14.06,14.06,0,0,1,2,1.2l6.36,4.05v1.8L171,92.67a11.07,11.07,0,0,1-1.95,1.2v.06c.82-.06,1.44-.06,2-.06h11.85V97.5H163.15V94.11l7.92-5.46a20.84,20.84,0,0,1,2.1-1.32v-.06A17.68,17.68,0,0,1,171,86l-7.83-5V77.58h19.77Z" fill="#fff"/><path d="M182.92,73H163.15V69.36h19.77Z" fill="#fff"/></svg>